<?xml version="1.0" encoding="UTF-8" standalone="no"?>
<!-- Created with Inkscape (http://www.inkscape.org/) -->

<svg
   xmlns:dc="http://purl.org/dc/elements/1.1/"
   xmlns:cc="http://creativecommons.org/ns#"
   xmlns:rdf="http://www.w3.org/1999/02/22-rdf-syntax-ns#"
   xmlns:svg="http://www.w3.org/2000/svg"
   xmlns="http://www.w3.org/2000/svg"
   xmlns:sodipodi="http://sodipodi.sourceforge.net/DTD/sodipodi-0.dtd"
   xmlns:inkscape="http://www.inkscape.org/namespaces/inkscape"
   width="210mm"
   height="297mm"
   viewBox="0 0 744.09448819 1052.3622047"
   id="svg2"
   version="1.1"
   inkscape:version="0.91 r13725"
   sodipodi:docname="4cycle-1loop.svg">
  <defs
     id="defs4">
    <marker
       inkscape:stockid="Arrow1Lend"
       orient="auto"
       refY="0.0"
       refX="0.0"
       id="Arrow1Lend"
       style="overflow:visible;"
       inkscape:isstock="true">
      <path
         id="path4298"
         d="M 0.0,0.0 L 5.0,-5.0 L -12.5,0.0 L 5.0,5.0 L 0.0,0.0 z "
         style="fill-rule:evenodd;stroke:#000000;stroke-width:1pt;stroke-opacity:1;fill:#000000;fill-opacity:1"
         transform="scale(0.8) rotate(180) translate(12.5,0)" />
    </marker>
    <marker
       inkscape:stockid="Arrow1Lstart"
       orient="auto"
       refY="0.0"
       refX="0.0"
       id="Arrow1Lstart"
       style="overflow:visible"
       inkscape:isstock="true">
      <path
         id="path4295"
         d="M 0.0,0.0 L 5.0,-5.0 L -12.5,0.0 L 5.0,5.0 L 0.0,0.0 z "
         style="fill-rule:evenodd;stroke:#000000;stroke-width:1pt;stroke-opacity:1;fill:#000000;fill-opacity:1"
         transform="scale(0.8) translate(12.5,0)" />
    </marker>
  </defs>
  <sodipodi:namedview
     id="base"
     pagecolor="#ffffff"
     bordercolor="#666666"
     borderopacity="1.0"
     inkscape:pageopacity="0.0"
     inkscape:pageshadow="2"
     inkscape:zoom="0.7"
     inkscape:cx="51.844761"
     inkscape:cy="536.06771"
     inkscape:document-units="px"
     inkscape:current-layer="layer1"
     showgrid="false"
     inkscape:window-width="2560"
     inkscape:window-height="1384"
     inkscape:window-x="0"
     inkscape:window-y="28"
     inkscape:window-maximized="0" />
  <metadata
     id="metadata7">
    <rdf:RDF>
      <cc:Work
         rdf:about="">
        <dc:format>image/svg+xml</dc:format>
        <dc:type
           rdf:resource="http://purl.org/dc/dcmitype/StillImage" />
        <dc:title></dc:title>
      </cc:Work>
    </rdf:RDF>
  </metadata>
  <g
     inkscape:label="Layer 1"
     inkscape:groupmode="layer"
     id="layer1">
    <path
       style="fill:#ff0000;fill-rule:evenodd;stroke:#000000;stroke-width:0.52419794px;stroke-linecap:butt;stroke-linejoin:miter;stroke-opacity:1"
       id="path3340"
       sodipodi:type="arc"
       sodipodi:cx="144.45183"
       sodipodi:cy="341.21481"
       sodipodi:rx="32.562782"
       sodipodi:ry="34.583084"
       sodipodi:start="0"
       sodipodi:end="6.2822141"
       d="m 177.01461,341.21481 a 32.562782,34.583084 0 0 1 -32.55488,34.58309 32.562782,34.583084 0 0 1 -32.57068,-34.56629 32.562782,34.583084 0 0 1 32.53906,-34.59987 32.562782,34.583084 0 0 1 32.58648,34.54949"
       sodipodi:open="true" />
    <path
       style="fill:#ff0000;fill-rule:evenodd;stroke:#000000;stroke-width:0.52419794px;stroke-linecap:butt;stroke-linejoin:miter;stroke-opacity:1"
       id="path3340-6"
       sodipodi:type="arc"
       sodipodi:cx="360.62448"
       sodipodi:cy="139.18431"
       sodipodi:rx="32.562782"
       sodipodi:ry="34.583084"
       sodipodi:start="0"
       sodipodi:end="6.2822141"
       d="m 393.18726,139.18431 a 32.562782,34.583084 0 0 1 -32.55487,34.58308 32.562782,34.583084 0 0 1 -32.57069,-34.56629 32.562782,34.583084 0 0 1 32.53906,-34.59986 32.562782,34.583084 0 0 1 32.58649,34.54948"
       sodipodi:open="true" />
    <path
       style="fill:none;fill-rule:evenodd;stroke:#000000;stroke-width:5.25856304;stroke-linecap:butt;stroke-linejoin:miter;stroke-miterlimit:4;stroke-dasharray:none;stroke-opacity:1"
       d="M 341.46178,162.9815 172.82394,331.74292"
       id="path3369-3"
       inkscape:connector-curvature="0"
       inkscape:transform-center-x="-141.58376"
       inkscape:transform-center-y="-44.243315" />
    <path
       style="fill:none;fill-rule:evenodd;stroke:#000000;stroke-width:5;stroke-linecap:butt;stroke-linejoin:miter;stroke-miterlimit:4;stroke-dasharray:none;stroke-opacity:1"
       d="M 329.88871,153.31033 167.25415,319.98551"
       id="path3369-5-5"
       inkscape:connector-curvature="0" />
    <text
       xml:space="preserve"
       style="font-style:normal;font-weight:normal;font-size:40px;line-height:125%;font-family:sans-serif;letter-spacing:0px;word-spacing:0px;fill:#000000;fill-opacity:1;stroke:none;stroke-width:1px;stroke-linecap:butt;stroke-linejoin:miter;stroke-opacity:1"
       x="137.14285"
       y="343.79077"
       id="text4220"
       sodipodi:linespacing="125%"><tspan
         sodipodi:role="line"
         id="tspan4222"
         x="137.14285"
         y="343.79077" /></text>
    <text
       xml:space="preserve"
       style="font-style:normal;font-weight:normal;font-size:40px;line-height:125%;font-family:sans-serif;letter-spacing:0px;word-spacing:0px;fill:#000000;fill-opacity:1;stroke:none;stroke-width:1px;stroke-linecap:butt;stroke-linejoin:miter;stroke-opacity:1"
       x="130.00002"
       y="355.21936"
       id="text4224"
       sodipodi:linespacing="125%"><tspan
         sodipodi:role="line"
         id="tspan4226"
         x="130.00002"
         y="355.21936">1</tspan><tspan
         sodipodi:role="line"
         x="130.00002"
         y="405.21936"
         id="tspan4228" /></text>
    <text
       xml:space="preserve"
       style="font-style:normal;font-weight:normal;font-size:40px;line-height:125%;font-family:sans-serif;letter-spacing:0px;word-spacing:0px;fill:#000000;fill-opacity:1;stroke:none;stroke-width:1px;stroke-linecap:butt;stroke-linejoin:miter;stroke-opacity:1"
       x="348.57141"
       y="152.36221"
       id="text4238"
       sodipodi:linespacing="125%"><tspan
         sodipodi:role="line"
         id="tspan4240"
         x="348.57141"
         y="152.36221">4</tspan></text>
    <path
       style="fill:none;fill-rule:evenodd;stroke:#000000;stroke-width:4;stroke-linecap:butt;stroke-linejoin:miter;stroke-opacity:1;stroke-miterlimit:4;stroke-dasharray:none"
       d="m 148.57143,368.07649 c 14.38835,-3.13546 2.32233,5.17947 4.28571,7.14286 0.33672,0.33671 1.09186,-0.33672 1.42857,0 0.67344,0.67343 -0.67343,2.18371 0,2.85714 0.33672,0.33672 1.09186,-0.33672 1.42858,0 0.67343,0.67344 -0.67344,2.18371 0,2.85714 0.33671,0.33672 1.09185,-0.33671 1.42857,0 0.67343,0.67344 -0.42592,2.00531 0,2.85715 0.30117,0.60233 1.1274,0.82623 1.42857,1.42857 0.42592,0.85183 -0.67344,2.18371 0,2.85714 0.33672,0.33672 1.09185,-0.33672 1.42857,0 0.71429,0.71429 -0.71429,3.57143 0,4.28571 0.33672,0.33672 1.09185,-0.33671 1.42857,0 0.34376,0.34376 -0.34376,5.37053 0,5.71429 0.33672,0.33672 1.09186,-0.33672 1.42857,0 0.33672,0.33672 0,0.95238 0,1.42857 0,0.47619 0,0.95238 0,1.42857 0,0.34647 -0.0459,4.23977 0,4.28572 0.33672,0.33671 1.09186,-0.33672 1.42857,0 0.33672,0.33671 0,0.95238 0,1.42857 0,0.67357 -0.0647,7.07811 0,7.14286 0.33672,0.33671 1.09186,-0.33672 1.42858,0 0.0459,0.0459 0,3.93924 0,4.28571 0,3.33333 0,6.66667 0,10 0,0.64337 0.21738,3.85095 0,4.28571 -0.30117,0.60234 -1.12741,0.82624 -1.42858,1.42858 -0.38749,0.77498 0.39089,5.32339 0,5.71428 -0.33671,0.33672 -1.09185,-0.33672 -1.42857,0 -0.71428,0.71429 0.71429,3.57143 0,4.28572 -0.33671,0.33671 -1.09185,-0.33672 -1.42857,0 -0.67343,0.67343 0.67344,2.1837 0,2.85714 -0.33672,0.33672 -1.09185,-0.33672 -1.42857,0 -0.67343,0.67343 0.67344,2.18371 0,2.85714 -3.80952,0 0.47619,-0.47619 -1.42857,1.42857 -0.33672,0.33672 -1.09186,-0.33671 -1.42857,0 -0.67344,0.67344 0.67343,2.18371 0,2.85715 -0.33672,0.33671 -1.09186,-0.33672 -1.42857,0 -0.33672,0.33671 0.33671,1.09185 0,1.42857 -0.33672,0.33671 -1.09186,-0.33672 -1.42858,0 -0.33671,0.33671 0.33672,1.09185 0,1.42857 -0.33671,0.33672 -0.95238,0 -1.42857,0 0,0.47619 0.33672,1.09185 0,1.42857 -0.67343,0.67344 -2.1837,-0.67343 -2.85714,0 -0.33672,0.33672 0.33672,1.09185 0,1.42857 -0.67343,0.67344 -2.18371,-0.67343 -2.85714,0 -0.33672,0.33672 0.33671,1.09186 0,1.42857 -0.67344,0.67344 -2.18371,-0.67343 -2.85715,0 -0.33671,0.33672 0.33672,1.09186 0,1.42857 -0.67343,0.67344 -2.1837,-0.67343 -2.85714,0 -0.33672,0.33672 0.33672,1.09186 0,1.42858 -0.67343,0.67343 -2.18371,-0.67344 -2.85714,0 -0.33672,0.33671 0.33672,1.09185 0,1.42857 -0.71429,0.71428 -3.57143,-0.71429 -4.28572,0 -0.33671,0.33671 0.33672,1.09185 0,1.42857 -0.33671,0.33672 -0.95238,0 -1.42857,0 -2.85714,0 -5.71428,0 -8.57143,0 -2.38095,0 -4.7619,0 -7.14285,0 -0.47619,0 -1.09186,0.33672 -1.42857,0 -0.33672,-0.33672 0.33671,-1.09186 0,-1.42857 -0.34376,-0.34376 -5.37053,0.34376 -5.71429,0 -0.33672,-0.33672 0.33672,-1.09186 0,-1.42857 -0.71429,-0.71429 -3.57143,0.71428 -4.28571,0 -0.33672,-0.33672 0.33671,-1.09186 0,-1.42858 -0.47619,0 -0.95239,0 -1.42858,0 -0.47619,0 -1.09185,0.33672 -1.42857,0 -0.33671,-0.33671 0.33672,-1.09185 0,-1.42857 -0.33671,-0.33671 -1.00265,0.21296 -1.42857,0 -0.60234,-0.30117 -0.82623,-1.1274 -1.42857,-1.42857 -0.425918,-0.21296 -1.091854,0.33672 -1.428571,0 -0.336718,-0.33672 0.336717,-1.09185 0,-1.42857 -0.336718,-0.33672 -1.002654,0.21296 -1.428572,0 -0.602338,-0.30117 -0.826233,-1.1274 -1.428571,-1.42857 -0.425918,-0.21296 -1.091854,0.33672 -1.428572,0 -0.336717,-0.33672 0.336718,-1.09186 0,-1.42857 -0.336717,-0.33672 -1.002653,0.21296 -1.428571,0 -0.602339,-0.30117 -0.826233,-1.1274 -1.428572,-1.42857 -0.425917,-0.21296 -1.091853,0.33671 -1.428571,0 -0.336717,-0.33672 0.336718,-1.09186 0,-1.42858 -0.336717,-0.33671 -0.952381,0 -1.428571,0 -0.476191,0 -1.091854,0.33672 -1.428572,0 -0.336717,-0.33671 0.336718,-1.09185 0,-1.42857 -0.336717,-0.33671 -1.091854,0.33672 -1.428571,0 -0.336718,-0.33671 0.336717,-1.09185 0,-1.42857 -0.336718,-0.33672 -1.091854,0.33672 -1.428572,0 -0.336717,-0.33672 0.336718,-1.09185 0,-1.42857 -0.336717,-0.33672 -1.091854,0.33672 -1.428571,0 -0.336718,-0.33672 0.336717,-1.09185 0,-1.42857 -0.336718,-0.33672 -1.091854,0.33672 -1.428572,0 -0.673435,-0.67344 0.673436,-2.18371 0,-2.85714 -0.336717,-0.33672 -1.091853,0.33671 -1.428571,0 -0.673435,-0.67344 0.673435,-2.18371 0,-2.85715 -0.336717,-0.33671 -1.091854,0.33672 -1.428571,0 -0.336718,-0.33671 0.336717,-1.09185 0,-1.42857 -0.336718,-0.33672 -1.091854,0.33672 -1.428572,0 -0.673435,-0.67343 0.673435,-2.18371 0,-2.85714 -0.336717,-0.33672 -1.091854,0.33672 -1.428571,0 -0.336718,-0.33672 0.212959,-1.00266 0,-1.42857 -0.30117,-0.60234 -1.127402,-0.82624 -1.428572,-1.42857 -0.212959,-0.42592 0.212959,-1.00266 0,-1.42858 -0.301169,-0.60233 -1.127402,-0.82623 -1.428571,-1.42857 -0.425918,-0.85183 0.673435,-2.1837 0,-2.85714 -0.336718,-0.33672 -1.091854,0.33672 -1.428572,0 -0.336717,-0.33672 0,-0.95238 0,-1.42857 0,-2.38095 0,-4.76191 0,-7.14286 0,-0.47619 0.336718,-1.09185 0,-1.42857 -0.336717,-0.33672 -1.091853,0.33672 -1.428571,0 -0.336717,-0.33672 0,-0.95238 0,-1.42857 0,-2.85714 0,-5.71429 0,-8.57143 0,-0.67357 -0.06475,-7.07811 0,-7.14286 1.904762,-1.90476 1.428571,2.38096 1.428571,-1.42857 0,-3.80952 0,-7.61905 0,-11.42857 0,-0.47619 0,-0.95238 0,-1.42857 0,-0.47619 -0.336717,-1.09186 0,-1.42857 0.336718,-0.33672 1.091854,0.33671 1.428572,0 0.673435,-0.67344 -0.673435,-2.18371 0,-2.85715 3.809524,0 -0.476191,0.47619 1.428571,-1.42857 0.336718,-0.33671 0.952381,0 1.428572,0 0.47619,0 1.091854,0.33672 1.428571,0 0.336718,-0.33671 -0.336717,-1.09185 0,-1.42857 0.336718,-0.33672 1.091854,0.33672 1.428572,0 0.336717,-0.33672 0,-0.95238 0,-1.42857 0.47619,0 1.091854,0.33672 1.428571,0 0.336718,-0.33672 -0.336717,-1.09185 0,-1.42857 0.673435,-0.67344 2.183708,0.67343 2.857143,0 0.336717,-0.33672 -0.336718,-1.09186 0,-1.42857 0.673435,-0.67344 2.183708,0.67343 2.857143,0 0.336717,-0.33672 -0.336718,-1.09186 0,-1.42857 0.47619,0 0.952381,0 1.428571,0 0.476191,0 1.091854,0.33671 1.428572,0 0.336717,-0.33672 -0.336718,-1.09186 0,-1.42858 0.714285,-0.71428 3.571428,0.71429 4.285714,0 1.904762,-1.90476 -2.380952,-1.42857 1.428571,-1.42857 0.476191,0 0.952381,0 1.428572,0 0.47619,0 1.091854,0.33672 1.428571,0 0.336718,-0.33671 0,-0.95238 0,-1.42857 0.476191,0 1.091854,0.33672 1.428572,0 0.336717,-0.33672 -0.336718,-1.09185 0,-1.42857 0.714285,-0.71429 3.571431,0.71429 4.285711,0 0.33672,-0.33672 -0.33671,-1.09185 0,-1.42857 0.67344,-0.67344 2.18371,0.67343 2.85715,0 0.33671,-0.33672 -0.33672,-1.09186 0,-1.42857 0.67343,-0.67344 2.1837,0.67343 2.85714,0 0.33672,-0.33672 -0.33672,-1.09186 0,-1.42857 0.67343,-0.67344 2.18371,0.67343 2.85714,0 0.33672,-0.33672 0,-0.95239 0,-1.42858 0.47619,0 1.09186,0.33672 1.42857,0 0.33672,-0.33671 -0.33671,-1.09185 0,-1.42857 0.33672,-0.33671 0.95238,0 1.42857,0 0.47619,0 1.09186,0.33672 1.42858,0 0.33671,-0.33671 -0.33672,-1.09185 0,-1.42857 0.44235,-0.44235 6.7005,0.44235 7.14285,0 0.33672,-0.33672 -0.33671,-1.09185 0,-1.42857 0.33672,-0.33672 0.95238,0 1.42857,0 0.47619,0 0.95239,0 1.42858,0"
       id="path5014"
       inkscape:connector-curvature="0" />
  </g>
</svg>
